<svg width="167" height="32" viewBox="0 0 167 32" fill="none" xmlns="http://www.w3.org/2000/svg">
<path d="M15.0028 4.02325C15.7123 2.45663 17.9372 2.45663 18.6466 4.02325L20.8918 8.98108C21.1896 9.63876 21.8188 10.0849 22.5379 10.1483L28.0064 10.6306C29.7827 10.7873 30.4814 13.0145 29.1129 14.1578L25.1343 17.4815C24.5528 17.9674 24.2957 18.7402 24.4705 19.4776L25.6588 24.4914C26.0611 26.1891 24.2485 27.552 22.7293 26.6941L17.8081 23.9153C17.1978 23.5707 16.4517 23.5707 15.8413 23.9153L10.9202 26.6941C9.40094 27.552 7.58837 26.1891 7.99073 24.4914L9.17898 19.4776C9.35374 18.7402 9.09672 17.9674 8.51515 17.4815L4.53659 14.1578C3.16809 13.0145 3.86681 10.7873 5.64313 10.6306L11.1115 10.1483C11.8307 10.0849 12.4599 9.63876 12.7577 8.98108L15.0028 4.02325Z" fill="#F2C94C"/>
<path d="M48.6523 4.02325C49.3617 2.45663 51.5866 2.45663 52.2961 4.02325L54.5412 8.98108C54.839 9.63876 55.4682 10.0849 56.1874 10.1483L61.6558 10.6306C63.4321 10.7873 64.1308 13.0145 62.7623 14.1578L58.7837 17.4815C58.2022 17.9674 57.9452 18.7402 58.1199 19.4776L59.3082 24.4914C59.7105 26.1891 57.898 27.552 56.3787 26.6941L51.4576 23.9153C50.8472 23.5707 50.1011 23.5707 49.4908 23.9153L44.5696 26.6941C43.0504 27.552 41.2378 26.1891 41.6401 24.4914L42.8284 19.4776C43.0032 18.7402 42.7461 17.9674 42.1646 17.4815L38.186 14.1578C36.8175 13.0145 37.5162 10.7873 39.2925 10.6306L44.761 10.1483C45.4801 10.0849 46.1093 9.63876 46.4071 8.98108L48.6523 4.02325Z" fill="#F2C94C"/>
<path d="M82.3017 4.02325C83.0111 2.45663 85.236 2.45663 85.9455 4.02325L88.1906 8.98108C88.4884 9.63876 89.1176 10.0849 89.8368 10.1483L95.3052 10.6306C97.0815 10.7873 97.7802 13.0145 96.4117 14.1578L92.4332 17.4815C91.8516 17.9674 91.5946 18.7402 91.7693 19.4776L92.9576 24.4914C93.3599 26.1891 91.5474 27.552 90.0281 26.6941L85.107 23.9153C84.4967 23.5707 83.7505 23.5707 83.1402 23.9153L78.2191 26.6941C76.6998 27.552 74.8872 26.1891 75.2896 24.4914L76.4778 19.4776C76.6526 18.7402 76.3956 17.9674 75.814 17.4815L71.8354 14.1578C70.4669 13.0145 71.1656 10.7873 72.942 10.6306L78.4104 10.1483C79.1296 10.0849 79.7587 9.63876 80.0566 8.98108L82.3017 4.02325Z" fill="#F2C94C"/>
<path d="M115.951 4.02325C116.661 2.45663 118.885 2.45663 119.595 4.02325L121.84 8.98108C122.138 9.63876 122.767 10.0849 123.486 10.1483L128.955 10.6306C130.731 10.7873 131.43 13.0145 130.061 14.1578L126.083 17.4815C125.501 17.9674 125.244 18.7402 125.419 19.4776L126.607 24.4914C127.009 26.1891 125.197 27.552 123.678 26.6941L118.756 23.9153C118.146 23.5707 117.4 23.5707 116.79 23.9153L111.868 26.6941C110.349 27.552 108.537 26.1891 108.939 24.4914L110.127 19.4776C110.302 18.7402 110.045 17.9674 109.463 17.4815L105.485 14.1578C104.116 13.0145 104.815 10.7873 106.591 10.6306L112.06 10.1483C112.779 10.0849 113.408 9.63876 113.706 8.98108L115.951 4.02325Z" fill="#F2C94C"/>
<path d="M148.777 4.02325C149.486 2.45663 151.711 2.45663 152.421 4.02325L154.666 8.98108C154.964 9.63876 155.593 10.0849 156.312 10.1483L161.781 10.6306C163.557 10.7873 164.256 13.0145 162.887 14.1578L158.909 17.4815C158.327 17.9674 158.07 18.7402 158.245 19.4776L159.433 24.4914C159.835 26.1891 158.023 27.552 156.503 26.6941L151.582 23.9153C150.972 23.5707 150.226 23.5707 149.616 23.9153L144.694 26.6941C143.175 27.552 141.363 26.1891 141.765 24.4914L142.953 19.4776C143.128 18.7402 142.871 17.9674 142.289 17.4815L138.311 14.1578C136.942 13.0145 137.641 10.7873 139.417 10.6306L144.886 10.1483C145.605 10.0849 146.234 9.63876 146.532 8.98108L148.777 4.02325Z" fill="#C4C4C4"/>
</svg>
